export const ReactComponent = svgContent;


<svg width="175.28251953125px" height="129.2px" xmlns="http://www.w3.org/2000/svg" viewBox="162.358740234375 10.400000000000006 175.28251953125 129.2" style="background: rgba(0, 0, 0, 0);" preserveAspectRatio="xMidYMid"><defs><linearGradient id="editing-sticker-gradient" x1="0.5" y1="0.2" x2="0.5" y2="0.8"><stop offset="0" stop-color="#fd9"></stop><stop offset="1" stop-color="#9df"></stop></linearGradient><filter id="editing-sticker" x="-100%" y="-100%" width="300%" height="300%"><feMorphology operator="erode" radius="1" in="SourceAlpha" result="alpha-erode"></feMorphology><feConvolveMatrix order="3,3" divisor="1" kernelMatrix="0 1 0 1 1 1 0 1 0" in="alpha-erode" result="alpha-round"></feConvolveMatrix><feMorphology operator="dilate" radius="3.5" in="alpha-round" result="dilate-shadow"></feMorphology><feGaussianBlur in="dilate-shadow" stdDeviation="1.5" result="shadow"></feGaussianBlur><feFlood flood-color="#fff" result="flood-sticker"></feFlood><feComposite operator="in" in="flood-sticker" in2="alpha-round" result="comp-sticker"></feComposite><feMorphology operator="dilate" radius="3" in="comp-sticker" result="morph-sticker"></feMorphology><feConvolveMatrix order="3,3" divisor="1" kernelMatrix="0 1 0 1 1 1 0 1 0" in="morph-sticker" result="sticker"></feConvolveMatrix><feMerge><feMergeNode in="shadow"></feMergeNode><feMergeNode in="sticker"></feMergeNode><feMergeNode in="SourceGraphic"></feMergeNode></feMerge></filter></defs><g filter="url(#editing-sticker)"><g transform="translate(197.26236498355865, 101.3700008392334)"><path d="M49.28-12.10L49.28-12.10L49.28-12.10Q49.28-9.79 48.26-7.74L48.26-7.74L48.26-7.74Q46.08-3.14 39.94-0.06L39.94-0.06L39.94-0.06Q33.79 3.01 27.14 3.01L27.14 3.01L27.14 3.01Q17.02 3.01 13.38-3.90L13.38-3.90L13.38-3.90Q6.78 1.60 3.97 1.60L3.97 1.60L3.97 1.60Q3.46 1.60 3.07 1.41L3.07 1.41L3.07 1.41Q1.15 0.38 1.15-3.01L1.15-3.01L1.15-3.01Q1.15-6.40 3.97-11.33L3.97-11.33L3.97-11.33Q6.78-16.26 8.90-17.15L8.90-17.15L8.90-17.15Q9.86-17.47 10.37-17.47L10.37-17.47L10.37-17.47Q12.22-17.47 13.18-14.40L13.18-14.40L15.10-8.26L15.10-8.26Q16.96-10.24 20.16-14.59L20.16-14.59L25.86-22.27L25.86-22.27Q36.35-35.90 39.62-37.18L39.62-37.18L39.62-37.18Q40.77-37.63 41.98-37.63L41.98-37.63L41.98-37.63Q43.20-37.63 44-37.12L44-37.12L44-37.12Q44.80-36.61 44.80-35.84L44.80-35.84L44.80-35.84Q44.80-34.69 42.94-34.50L42.94-34.50L42.94-34.50Q41.02-33.41 35.62-28.13L35.62-28.13L35.62-28.13Q30.21-22.85 29.18-21.44L29.18-21.44L29.18-21.44Q22.02-11.46 15.94-6.08L15.94-6.08L15.94-6.08Q19.84 1.66 27.65 1.66L27.65 1.66L27.65 1.66Q32.38 1.66 37.06-1.31L37.06-1.31L37.06-1.31Q41.73-4.29 44.03-8.64L44.03-8.64L44.03-8.64Q45.06-10.50 45.06-12.80L45.06-12.80L45.06-12.80Q45.06-15.10 43.23-17.18L43.23-17.18L43.23-17.18Q41.41-19.26 38.66-20.22L38.66-20.22L38.66-20.22Q37.38-20.42 34.56-20.77L34.56-20.77L34.56-20.77Q31.74-21.12 31.74-21.95L31.74-21.95L31.74-21.95Q31.74-22.27 32-22.53L32-22.53L32-22.53Q32.77-23.42 33.98-23.42L33.98-23.42L33.98-23.42Q34.69-23.42 35.36-23.17L35.36-23.17L35.36-23.17Q36.03-22.91 36.42-22.78L36.42-22.78L36.42-22.78Q36.80-22.66 37.31-22.46L37.31-22.46L37.31-22.46Q38.72-22.34 39.74-22.34L39.74-22.34L39.74-22.34Q43.97-22.34 47.42-23.68L47.42-23.68L47.42-23.68Q51.84-25.41 53.06-28.86L53.06-28.86L53.06-28.86Q53.82-31.10 53.82-32.90L53.82-32.90L53.82-32.90Q53.82-37.31 49.54-39.49L49.54-39.49L49.54-39.49Q45.82-41.41 39.36-41.41L39.36-41.41L39.36-41.41Q29.18-41.41 21.12-37.57L21.12-37.57L21.12-37.57Q17.02-35.65 13.34-31.87L13.34-31.87L13.34-31.87Q9.66-28.10 9.66-25.41L9.66-25.41L9.66-25.41Q9.66-23.55 10.62-22.34L10.62-22.34L10.62-22.34Q11.01-21.82 11.97-21.06L11.97-21.06L11.97-21.06Q12.29-20.86 11.58-20.86L11.58-20.86L11.58-20.86Q7.62-21.76 7.62-26.18L7.62-26.18L7.62-26.18Q7.62-30.59 12.10-34.50L12.10-34.50L12.10-34.50Q15.42-37.38 19.58-39.17L19.58-39.17L19.58-39.17Q28.22-42.88 39.23-42.88L39.23-42.88L39.23-42.88Q47.10-42.88 51.78-40.58L51.78-40.58L51.78-40.58Q57.22-38.02 57.22-32.83L57.22-32.83L57.22-32.83Q57.22-30.78 56.38-28.67L56.38-28.67L56.38-28.67Q55.04-24.83 49.41-22.85L49.41-22.85L49.41-22.85Q45.18-21.38 40.32-21.31L40.32-21.31L40.32-21.31Q44.10-21.12 46.69-18.53L46.69-18.53L46.69-18.53Q49.28-15.94 49.28-12.10ZM8.38-14.46L8.38-14.46L8.38-14.46Q8.32-14.46 8.06-14.34L8.06-14.34L8.06-14.34Q3.33-7.49 3.33-3.33L3.33-3.33L3.33-3.33Q3.33-1.60 4.16-0.19L4.16-0.19L4.16-0.19Q4.35 0.13 4.80 0.13L4.80 0.13L4.80 0.13Q6.85 0.13 12.67-5.70L12.67-5.70L12.48-5.95L12.48-5.95Q9.92-14.46 8.38-14.46ZM87.49-31.17L87.49-31.17L87.36-29.12L87.36-29.12Q87.36-24.96 91.84-24.96L91.84-24.96L91.84-24.96Q95.55-24.96 99.33-27.52L99.33-27.52L99.33-27.52Q103.10-30.08 103.10-32.70L103.10-32.70L103.10-32.70Q103.10-35.33 100.03-37.12L100.03-37.12L100.03-37.12Q97.98-38.34 93.63-38.34L93.63-38.34L93.63-38.34Q87.17-38.34 79.20-35.26L79.20-35.26L79.20-35.26Q71.23-32.19 64.26-25.41L64.26-25.41L64.26-25.41Q55.10-16.45 55.10-8.96L55.10-8.96L55.10-8.96Q55.10-4.54 58.46-1.86L58.46-1.86L58.46-1.86Q61.82 0.83 67.26 0.83L67.26 0.83L67.26 0.83Q74.82 0.83 84.80-4.86L84.80-4.86L84.80-4.86Q93.12-9.54 97.28-14.78L97.28-14.78L99.14-17.54L99.14-17.54Q97.98-17.54 89.60-16.86L89.60-16.86L89.60-16.86Q81.22-16.19 80-15.90L80-15.90L80-15.90Q78.78-15.62 78.02-15.62L78.02-15.62L78.02-15.62Q75.90-15.62 75.90-16.64L75.90-16.64L75.90-16.64Q75.90-18.24 80.77-19.30L80.77-19.30L80.77-19.30Q85.63-20.35 97.22-20.35L97.22-20.35L97.22-20.35Q108.80-20.35 112.51-19.46L112.51-19.46L112.51-19.46Q113.09-19.33 113.09-19.14L113.09-19.14L113.09-19.14Q113.09-18.43 108.67-18.11L108.67-18.11L108.67-18.11Q103.17-17.66 103.04-17.66L103.04-17.66L103.04-17.66Q96.51-9.09 86.14 8.83L86.14 8.83L86.14 8.83Q85.57 9.86 85.02 9.86L85.02 9.86L85.02 9.86Q84.48 9.86 84.48 9.02L84.48 9.02L84.48 9.02Q84.48 6.78 88.06 0.38L88.06 0.38L92.54-8L92.54-8Q88.45-4.48 82.11-1.41L82.11-1.41L82.11-1.41Q73.86 2.50 66.53 2.50L66.53 2.50L66.53 2.50Q59.20 2.50 55.33-0.67L55.33-0.67L55.33-0.67Q51.46-3.84 51.46-9.15L51.46-9.15L51.46-9.15Q51.46-18.94 63.30-29.06L63.30-29.06L63.30-29.06Q69.25-34.18 77.70-37.57L77.70-37.57L77.70-37.57Q86.14-40.96 92.51-40.96L92.51-40.96L92.51-40.96Q98.88-40.96 102.27-38.46L102.27-38.46L102.27-38.46Q104.90-36.42 104.90-33.86L104.90-33.86L104.90-33.86Q104.90-30.21 100.38-26.85L100.38-26.85L100.38-26.85Q95.87-23.49 91.46-23.49L91.46-23.49L91.46-23.49Q85.50-23.49 85.50-30.34L85.50-30.34L85.50-30.34Q85.50-32.96 86.59-32.96L86.59-32.96L86.59-32.96Q87.49-32.96 87.49-31.17Z" fill="url(#editing-sticker-gradient)" stroke="#000" stroke-width="2.5"></path></g></g><style>text {
  font-size: 64px;
  font-family: Arial Black;
  dominant-baseline: central;
  text-anchor: middle;
}</style></svg>